<svg xmlns="http://www.w3.org/2000/svg" viewBox="0 0 249.72 118.64"><title>Procyon Creative</title><defs><linearGradient id="a" x1="1.38" y1="103.86" x2="248.38" y2="42.47" gradientUnits="userSpaceOnUse"><stop offset="0" stop-color="#2cd5de"/><stop offset=".49" stop-color="#de1bb0"/><stop offset="1" stop-color="#e8dc31"/></linearGradient></defs><path d="M232.77 14.2c-17.88-17.2-43.16-17.81-64.51-7-16.91 8.56-28.05 23.99-38.52 39.25 1.08-6.13-.38-12.67-4.32-17.77-7.11-9.2-18.76-10.77-28.94-5.77C64.44 38.65 34.69 57.95 6.57 79.9 2.37 83.18 0 90.71 0 95.76c0 5.51 2.45 12.08 6.57 15.87 4.28 3.92 9.89 6.83 15.87 6.57 6.05-.28 10.48-2.5 15.18-6.06.01 0 .02-.02.03-.02.09-.07.17-.14.25-.2a.21.21 0 0 0 .06-.04h.01s.09-.07.13-.11c.14-.11.27-.21.39-.3s.22-.17.33-.25l.06-.04c.07-.05.14-.11.21-.17.01 0 .01 0 .02-.02.02-.01.05-.03.08-.06.05-.04.09-.07.13-.1-.01.02-.03.03-.04.04.31-.23.62-.47.93-.7 1.73-1.31 3.47-2.61 5.22-3.89 3.06-2.25 6.14-4.47 9.26-6.64 5.3-3.71 10.67-7.31 16.11-10.8.69 3.96 1.98 8.3 3.88 13.17 3.91 10.03 10.87 15.59 21.63 16.47 19.11 1.57 37.52-8.54 50.75-21.59 6.51-6.43 11.94-14.02 17.13-21.53 2.21-3.19 4.36-6.41 6.56-9.6 1.03-1.49 2.06-2.97 3.12-4.43.47-.64.95-1.28 1.42-1.93 0-.01.02-.02.02-.02l.22-.25c2.46-2.8 4.85-5.61 7.62-8.12.26-.24.53-.47.79-.7h.01c1.68-.74 3.53-2.48 5.08-3.35.53-.31 1.1-.57 1.65-.85 1.34-.43 2.68-1.04 4.03-1.38.28-.07.6-.12.94-.17h.04c.44-.02.87-.04 1.31-.05.75.27 1.94.46 2.85.62.3.16.6.33.88.5.47.5 1.01 1.01 1.51 1.51.53.8 1.04 1.6 1.49 2.44.07.13.14.29.22.47.01.01.01.02.01.02.27 1.02.53 2.05.8 3.07v.02c.03.51.05 1.01.05 1.51 0 .28-.04.6-.07.92-.14.58-.27 1.15-.44 1.72-.07.24-.23.68-.39 1.13-.01 0-.01.02-.01.03-.5.93-1.04 1.84-1.6 2.72-.11.17-.24.35-.36.52l-.42.42c-.97.99-1.97 1.94-2.99 2.87-.69.44-1.36.91-2.07 1.33-.5.29-1.02.55-1.52.83-1.7.48-3.39 1.2-5.11 1.61-11.43 2.68-19.3 16.37-15.66 27.59 3.86 11.93 15.34 18.55 27.59 15.67 21.1-4.95 37.99-20.74 45.2-40.97 6.89-19.31.43-42.81-14.19-56.86Z" style="fill:url(#a);stroke-width:0"/></svg>